<?xml version="1.0" encoding="utf-8"?>
<!-- Generator: Adobe Illustrator 22.1.0, SVG Export Plug-In . SVG Version: 6.00 Build 0)  -->
<svg version="1.1" id="icon7" xmlns="http://www.w3.org/2000/svg" xmlns:xlink="http://www.w3.org/1999/xlink" x="0px" y="0px"
	 viewBox="0 0 342.1 315.1" style="enable-background:new 0 0 342.1 315.1;" xml:space="preserve">
<style type="text/css">
	.st0{fill:#2FD2ED;}
</style>
<polygon id="line13" class="st0" points="157.7,16.4 311,18.7 311.3,25.6 158,23.2 "/>
<polygon id="line12" class="st0" points="18.5,87 18.5,269 27.5,269 27.5,86.8 "/>
<polygon id="line11" class="st0" points="141,34 141,184 147.6,184 147.6,36 "/>
<polygon id="line10" class="st0" points="326.2,198.9 215.5,295 223.9,297.1 334.6,200.9 "/>
<polygon id="line9" class="st0" points="36.3,288.3 205.5,294.4 204.8,286.2 38.4,278.4 "/>
<polygon id="line8" class="st0" points="321.8,22 221.5,81.8 225.3,87 325.5,25.9 "/>
<polygon id="line7" class="st0" points="211.5,89 211.5,280 221.5,277 221.5,87 "/>
<rect id="line6" x="319.9" y="33.5" class="st0" width="6.6" height="159"/>
<polygon id="line4" class="st0" points="145.1,191.8 17,278.8 22.1,283.2 146.6,197.8 "/>
<polygon id="line3" class="st0" points="307.5,197.4 155.4,193.2 155.5,198.6 307.6,202.8 "/>
<polygon id="line2" class="st0" points="199.6,80.1 38.9,75.2 39.5,83.9 200.1,88.8 "/>
<polygon id="line1" class="st0" points="20.3,77.2 147.4,13.6 147.8,19.4 23.9,82.6 "/>
<circle id="circle8" cx="218.3" cy="290" r="21"/>
<circle id="circle7" cx="23.8" cy="280" r="19.3"/>
<circle id="circle6" cx="23.8" cy="76.8" r="19.3"/>
<circle id="circle5" cx="218.3" cy="86.8" r="21"/>
<circle id="circle4" cx="325.1" cy="21.9" r="16.9"/>
<circle id="circle3" cx="144.1" cy="197.1" r="16.9"/>
<circle id="circl2" cx="323.1" cy="200.1" r="16.9"/>
<circle id="circle1" cx="144.1" cy="21.9" r="16.9"/>
</svg>
