<?xml version="1.0" encoding="utf-8"?>
<!-- Generator: Adobe Illustrator 22.1.0, SVG Export Plug-In . SVG Version: 6.00 Build 0)  -->
<svg version="1.1" id="icon9" xmlns="http://www.w3.org/2000/svg" xmlns:xlink="http://www.w3.org/1999/xlink" x="0px" y="0px"
	 viewBox="0 0 331 342" style="enable-background:new 0 0 331 342;" xml:space="preserve">
<style type="text/css">
	.st0{fill:#D30707;}
</style>
<polygon id="line7" class="st0" points="148.7,214.6 121,271.6 130.5,273.3 157,216.4 "/>
<polygon id="line6" class="st0" points="126.8,172.3 50.1,188.3 51.3,196.1 127.5,179.3 "/>
<polygon id="line5" class="st0" points="79.9,100.4 137.6,146.8 141.4,143 84.5,98.1 "/>
<polygon id="line4" class="st0" points="174.8,37.1 174.2,138.2 181.2,137.9 181.9,38.8 "/>
<polygon id="line3" class="st0" points="276.2,100.9 197.6,146.2 201.8,153.1 279.5,108.8 "/>
<polygon id="line2" class="st0" points="241,273.6 196.1,201 191,205 235.9,276 "/>
<polygon id="line1" class="st0" points="219.8,185.4 300.3,216.3 302.2,210.5 222.7,180.7 "/>
<circle id="circle8" cx="176.5" cy="170.5" r="54.5"/>
<circle id="circle7" cx="179.5" cy="30.5" r="27.5"/>
<circle id="circle6" cx="287.5" cy="99.5" r="36.5"/>
<circle id="circle5" cx="296.5" cy="214.5" r="17.5"/>
<circle id="circle4" cx="247.5" cy="288.5" r="27.5"/>
<circle id="circle3" cx="122" cy="290" r="38"/>
<circle id="circle2" cx="30.5" cy="199.5" r="27.5"/>
<circle id="circle1" cx="73" cy="92" r="20"/>
</svg>
