<?xml version="1.0" encoding="utf-8"?>
<!-- Generator: Adobe Illustrator 22.1.0, SVG Export Plug-In . SVG Version: 6.00 Build 0)  -->
<svg version="1.1" id="icon4" xmlns="http://www.w3.org/2000/svg" xmlns:xlink="http://www.w3.org/1999/xlink" x="0px" y="0px"
	 viewBox="0 0 399 332.6" style="enable-background:new 0 0 399 332.6;" xml:space="preserve">
<style type="text/css">
	.st0{fill:#FFFFFF;}
	.st1{fill:#D7DB16;}
</style>
<path id="background" d="M9.6,46.6c5,11.9,130.3,240.5,145.1,264.6s59,26.8,76.4,1.9c16.3-20.8,152.6-250,160-266.5
	c7.4-28.6-5.9-38.9-27.9-39C341.3,7.5,47.7,2.8,28.6,9.1S3.3,31.4,9.6,46.6z"/>
<polygon id="line9_2_" class="st0" points="213.1,327.6 212.8,267.2 230.5,228.2 230.1,159.5 237.5,159.5 237.8,230.8 220.2,268.5 
	220.6,323.6 "/>
<polygon id="line8_2_" class="st0" points="187.3,329.6 189.2,289.6 194.6,280.9 194.5,253.9 201.7,239.7 192.1,210.2 191.8,158.7 
	196.9,158.7 197.1,206.3 208.2,241 199.6,257.7 199.7,284.7 196.7,289.4 194.7,330.6 "/>
<polygon id="line7_1_" class="st0" points="164.3,153.9 164.6,213 152.3,239.7 174,272 174.1,283.4 174.2,326.6 166.7,323.6 
	166.4,274.1 143.9,241.9 158.4,210.9 158.1,153.9 "/>
<polygon id="line3_2_" class="st0" points="195.6,144.7 235.5,131.1 265.9,136.9 325,101.3 370.5,82.9 362.7,95.9 331.3,105.8 
	267.2,146.2 234.1,139.9 197.7,150.8 "/>
<path id="line2_2_" class="st0" d="M177.2,125.9l26.1-12.6l5,10.4l48.2-23.2l23.2-0.7l22-9.2l53-51.5l36.5-9.5c0.7,3.4,1.3,6.4,1,5
	l-32.9,10.1l-53.1,50.9l-26.7,13l-22.2,0.2l-55.2,26.6l-4.1-8.5l-17.1,8.2L177.2,125.9z"/>
<polygon id="line9_1_" class="st0" points="188.9,98.2 146.9,79.1 124.4,50.4 51.6,7.2 61.3,7.3 129.3,44.9 150.7,73.1 191.9,91.6 
	"/>
<polygon id="line8_1_" class="st0" points="167,124.2 143.3,113.6 140.1,101.2 121,92.6 115.1,79 88.8,81.5 10.5,23.3 13.6,17.2 
	88.9,73.9 119.6,71.2 126.6,87.5 145.7,96.1 149.9,108.9 168.1,117 "/>
<polygon id="line7_2_" class="st0" points="155.8,144.4 117.5,127.2 104.7,109.4 76,117.4 52.3,106.7 36.8,99.8 33.3,90.6 
	77.3,110.7 106.4,102 121.2,122.8 158.1,139.4 "/>
<polygon id="line1_1_" class="st0" points="204.9,92.4 222.8,77.7 243,78.6 255.2,54.4 277.2,43.8 337.3,7.6 350.3,7.6 260.7,60.4 
	245.7,87.5 223.1,85.8 204.1,105.5 "/>
<path id="bigtri" class="st1" d="M140.6,179.2c-1-1.6,51.5-110.7,55.3-110.7s56.9,109.4,55.3,110.7
	C249.7,180.5,141.6,180.8,140.6,179.2z"/>
<path id="middletri" d="M154.6,164.3c-0.7-1.2,39.4-84.7,42.4-84.7c2.9,0,43.6,83.8,42.4,84.7S155.3,165.6,154.6,164.3z"/>
<path id="smalltri" class="st1" d="M172.2,149.4c-0.5-0.8,25.9-55.7,27.8-55.7c1.9,0,28.6,55,27.8,55.7
	C227,150,172.6,150.2,172.2,149.4z"/>
</svg>
