<?xml version="1.0" encoding="utf-8"?>
<!-- Generator: Adobe Illustrator 22.1.0, SVG Export Plug-In . SVG Version: 6.00 Build 0)  -->
<svg version="1.1" id="Layer_1" xmlns="http://www.w3.org/2000/svg" xmlns:xlink="http://www.w3.org/1999/xlink" x="0px" y="0px"
	 viewBox="0 0 1400 504" style="enable-background:new 0 0 1400 504;" xml:space="preserve">
<style type="text/css">
	.st0{display:none;}
	.st1{display:inline;fill:none;}
	.st2{fill:#B7E117;}
	.st3{fill:none;stroke:#FCFCFC;stroke-width:42;stroke-miterlimit:10;}
	.st4{fill:none;stroke:#000000;stroke-width:35;stroke-miterlimit:10;}
	.st5{fill:none;stroke:#B7E117;stroke-width:35;stroke-miterlimit:10;}
	.st6{fill:none;stroke:#F26200;stroke-miterlimit:10;}
</style>
<g id="rulerguides" class="st0">
	<path class="st1" d="M1069,161"/>
</g>
<g id="SVGLYPHICS">
	<g>
		<polygon class="st2" points="631,277.5 475,277.5 457.5,277.5 457.5,260 457.5,60 457.5,42.5 475,42.5 618.5,42.5 610.1,44.7 
			681.5,25.5 626.9,75.3 624.5,77.5 618.5,77.5 475,77.5 492.5,60 492.5,260 475,242.5 631,242.5 		"/>
	</g>
	<polyline class="st3" points="187.5,60 26,60 26,160 174,160 174,260 26,260 26,359 651.5,359.5 651.5,127.5 538.5,127.5 
		538.5,196.5 605.5,196.5 	"/>
	<polyline class="st3" points="420,41 420,72 341,259 302,259 245.4,126.7 222,72 222,41 	"/>
	<path class="st4" d="M703.5,39.5"/>
	<g>
		<polygon class="st2" points="739,39.5 739,272.5 729.9,257.2 770.7,299.1 770.3,299.9 713.1,287.8 704,285.9 704,272.5 704,39.5 
					"/>
	</g>
	<path class="st5" d="M788.5,160.5v49c0,56,4,44,40,48h54"/>
	<g>
		<polygon class="st2" points="899,160.5 899,391.5 899,406.3 887.7,407.9 810.5,418.5 875.3,375.1 864,391.5 864,160.5 		"/>
	</g>
	<path class="st6" d="M987.5,260"/>
	<g>
		<polygon class="st2" points="1006.5,491.5 941.3,477 932,474.9 932,461.5 932,176.5 932,159 949.5,159 1047.5,159 1065,159 
			1065,176.5 1065,257.5 1065,275 1047.5,275 949.5,275 949.5,240 1047.5,240 1030,257.5 1030,176.5 1047.5,194 949.5,194 
			967,176.5 967,461.5 957.7,446 		"/>
	</g>
	<g>
		<polygon class="st2" points="1186,274.5 1186,169.5 1203.5,187 1112.5,187 1130,169.5 1130,274.5 1095,274.5 1095,39.5 
			1103.9,54.7 1059.5,9.5 1121.1,24.3 1130,26.4 1130,39.5 1130,274.5 1095,274.5 1095,169.5 1095,152 1112.5,152 1203.5,152 
			1221,152 1221,169.5 1221,274.5 		"/>
	</g>
	<g>
		<polygon class="st2" points="1250.5,261.5 1373.5,244 1356,261.5 1356,216.5 1373.5,234 1269.5,234 1252,234 1252,216.5 
			1252,171.5 1252,151.5 1269.5,154 1393,171.5 1269.5,189 1287,171.5 1287,216.5 1269.5,199 1373.5,199 1391,199 1391,216.5 
			1391,261.5 1391,281.5 1373.5,279 		"/>
	</g>
</g>
</svg>
